<?xml version="1.0" encoding="UTF-8" standalone="no"?>
<svg width="50px" height="50px" viewBox="0 0 50 50" version="1.1" xmlns="http://www.w3.org/2000/svg" xmlns:xlink="http://www.w3.org/1999/xlink">
    <!-- Generator: sketchtool 3.8.3 (29802) - http://www.bohemiancoding.com/sketch -->
    <title>30D6C472-497F-4D1B-BBE2-E2F7C745BBC2</title>
    <desc>Created with sketchtool.</desc>
    <defs></defs>
    <g id="1000_Cover" stroke="none" stroke-width="1" fill="none" fill-rule="evenodd">
        <g id="1000_Cover/Itinerary" transform="translate(-316.000000, -247.000000)" fill="#FFFFFF">
            <g id="Icons" transform="translate(315.000000, 55.000000)">
                <g id="icn_reservations" transform="translate(1.000000, 192.000000)">
                    <g id="icon" transform="translate(6.000000, 14.000000)">
                        <path d="M4.99961426,7.85136194 C4.99961426,8.5333716 4.39322635,9.26319306 3.6066965,9.26319306 L3.6066965,20.7739829 C3.6066965,22.4086724 1.43226354,22.4086724 1.43226354,20.7739829 L1.43226354,9.26319306 C0.666563802,9.26319306 0,8.65902576 0,7.75376265 L0,1.41889659 C0,0.867282751 0.778043512,0.846340392 0.778043512,1.44023409 L0.778043512,6.12341975 L1.42956334,6.12341975 L1.42956334,1.39795423 C1.42956334,0.891386221 2.17829039,0.858984835 2.17829039,1.41929173 L2.17829039,6.12341975 L2.85102608,6.12341975 L2.85102608,1.40348617 C2.85102608,0.874000112 3.57853726,0.852662614 3.57853726,1.42482367 L3.57853726,6.12341975 L4.24047215,6.12341975 L4.24047215,1.40348617 C4.24047215,0.879927194 5,0.858589696 5,1.42482367 L4.99961426,7.85136194 L4.99961426,7.85136194 Z" id="Shape"></path>
                        <path d="M36,2.88698468 L36,20.8073978 C36,22.409592 34.0426343,22.3854303 34.0426343,20.8073978 L34.0426343,13.6971413 L33,13.6971413 L33,2.88698468 C33,0.371005106 36,0.371005106 36,2.88698468 L36,2.88698468 Z" id="Shape"></path>
                        <path d="M21.1951694,15 C21.0683246,15 20.9400505,14.9664122 20.8199946,14.8960378 L17,12.6384587 L17,4.9000727 C17,4.40305344 17.3601679,4 17.8039461,4 C18.248439,4 18.6086068,4.40305344 18.6086068,4.9000727 L18.6086068,11.5532534 L21.5710589,13.3042166 C21.9640992,13.5361323 22.1145265,14.0803344 21.9062151,14.5205743 C21.762934,14.8256634 21.4838754,15 21.1951694,15 L21.1951694,15 Z" id="Shape"></path>
                        <path d="M18.9997963,0 C12.3724898,0 7,5.37280598 7,12 C7,18.627194 12.3728972,24 18.9997963,24 C25.6279176,24 31,18.627194 31,12 C31,5.37280598 25.6275102,0 18.9997963,0 L18.9997963,0 Z M18.9997963,21.8032932 C13.5947139,21.8032932 9.19715154,17.4053981 9.19715154,12 C9.19715154,6.59419453 13.5947139,2.19670684 18.9997963,2.19670684 C24.4056935,2.19670684 28.8032559,6.59419453 28.8032559,12 C28.8028485,17.4053981 24.4052861,21.8032932 18.9997963,21.8032932 L18.9997963,21.8032932 Z" id="Shape"></path>
                    </g>
                </g>
            </g>
        </g>
    </g>
</svg>