<?xml version="1.0" encoding="UTF-8" standalone="no"?>
<svg width="50px" height="50px" viewBox="0 0 50 50" version="1.1" xmlns="http://www.w3.org/2000/svg" xmlns:xlink="http://www.w3.org/1999/xlink">
    <!-- Generator: sketchtool 3.8.3 (29802) - http://www.bohemiancoding.com/sketch -->
    <title>B0DF70A2-61C3-4BF1-99D1-E4DC3DDB56DC</title>
    <desc>Created with sketchtool.</desc>
    <defs></defs>
    <g id="1000_Cover" stroke="none" stroke-width="1" fill="none" fill-rule="evenodd">
        <g id="1000_Cover/Itinerary" transform="translate(-316.000000, -55.000000)" fill="#FFFFFF">
            <g id="Icons" transform="translate(315.000000, 55.000000)">
                <g id="icn_profile" transform="translate(1.000000, 0.000000)">
                    <path d="M36.895673,38 C36.559676,38 36.2632775,37.7576802 36.2062437,37.4151819 C35.3471906,32.2756387 31.5634561,29.8816967 24.2982957,29.8816967 C17.0349084,29.8822878 13.2511738,32.2759342 12.3903476,37.4148864 C12.3265171,37.7958013 11.9654015,38.0537832 11.5844867,37.9896571 C11.2032763,37.926122 10.9458854,37.564711 11.009716,37.1837961 C11.99052,31.3285231 16.3372048,28.4818568 24.2982957,28.4818568 C32.2614552,28.4818568 36.6081399,31.3285231 37.5865799,37.1843871 C37.6504104,37.565893 37.3927241,37.926713 37.0118092,37.9902481 C36.9728016,37.9973404 36.9340896,38 36.895673,38 L36.895673,38 Z M24.2982957,27.6006403 C20.5476585,27.6006403 17.495907,24.5503663 17.495907,20.8009112 C17.495907,17.050865 20.547363,14 24.2982957,14 C28.0498194,14 31.1018665,17.0505695 31.1018665,20.8009112 C31.1018665,24.5503663 28.0498194,27.6006403 24.2982957,27.6006403 L24.2982957,27.6006403 Z M24.2982957,15.3998399 C21.3192401,15.3998399 18.8960424,17.8227421 18.8960424,20.8006156 C18.8960424,23.7781937 21.3192401,26.2008003 24.2982957,26.2008003 C27.2779423,26.2008003 29.7020265,23.7781937 29.7020265,20.8006156 C29.7020265,17.8230376 27.2779423,15.3998399 24.2982957,15.3998399 L24.2982957,15.3998399 Z" id="Shape"></path>
                </g>
            </g>
        </g>
    </g>
</svg>