<?xml version="1.0" encoding="UTF-8" standalone="no"?>
<svg width="51px" height="51px" viewBox="0 0 51 51" version="1.1" xmlns="http://www.w3.org/2000/svg" xmlns:xlink="http://www.w3.org/1999/xlink">
    <!-- Generator: sketchtool 3.8.3 (29802) - http://www.bohemiancoding.com/sketch -->
    <title>475D8A7F-078E-4982-A37E-98979BD681DC</title>
    <desc>Created with sketchtool.</desc>
    <defs></defs>
    <g id="1000_Cover" stroke="none" stroke-width="1" fill="none" fill-rule="evenodd">
        <g id="1000_Cover/Itinerary" transform="translate(-315.000000, -183.000000)" stroke="#FFFFFF" fill="#FFFFFF">
            <g id="Icons" transform="translate(315.000000, 55.000000)">
                <g id="icn_chat" transform="translate(25.829268, 153.302326) scale(-1, 1) translate(-25.829268, -153.302326) translate(0.829268, 128.302326)">
                    <path d="M39.2493069,24.8548329 C39.2493069,19.4291384 33.1124233,15 25.6246534,15 C18.0982868,15 12,19.4291384 12,24.8548329 C12,25.4822942 12.0771935,26.0728459 12.2315805,26.6633977 C12.2701773,26.8479452 12.3473708,27.0324926 12.3859675,27.21704 C12.463161,27.4015874 12.5017578,27.5492254 12.5789513,27.7337728 C14.3158051,31.7199974 19.4877699,34.6727563 25.6246534,34.6727563 C26.3579917,34.6727563 27.1299268,34.6358468 27.863265,34.5251183 C28.0562488,34.4882088 28.2878293,34.4882088 28.4808131,34.4512994 C28.6737968,34.4143899 28.9053773,34.3774804 29.0983611,34.3405709 C30.0632799,34.1560235 31.0281987,33.8976571 31.9545208,33.5654717 L35.5440187,36.1491357 C35.6598089,36.2229547 35.7755992,36.2598642 35.8913894,36.2598642 C36.0071797,36.2598642 36.12297,36.2229547 36.2387602,36.1491357 C36.431744,36.0014978 36.5475342,35.7800409 36.4703407,35.5216745 L35.3124382,31.7938163 C37.7826303,29.948342 39.2493069,27.4384969 39.2493069,24.8548329 L39.2493069,24.8548329 Z M34.2317291,31.1294456 C34.0001486,31.2770835 33.9229551,31.5723594 34.0387454,31.8307258 L34.8106804,34.2298424 L32.533472,32.5689156 C32.379085,32.3843681 32.1089078,32.2736397 31.8387305,32.3843681 C31.0281987,32.7165535 30.1404734,32.9749199 29.2141514,33.1594673 C29.0211676,33.1963768 28.8281838,33.2332863 28.6352001,33.2701958 C28.4422163,33.3071053 28.2492326,33.3440148 28.0562488,33.3809243 C27.245717,33.4916527 26.473782,33.5654717 25.6246534,33.5654717 C19.9509309,33.5654717 15.1649337,30.9079887 13.6596603,27.2539495 C13.5824668,27.0694021 13.5438701,26.9217641 13.4666766,26.7372167 C13.4280798,26.5526693 13.3508863,26.3681218 13.3122896,26.2204839 C13.1964993,25.77757 13.1579026,25.3346562 13.1579026,24.8548329 C13.1579026,20.0565996 18.7544316,16.1441941 25.6246534,16.1441941 C32.4948753,16.1441941 38.0914043,20.0565996 38.0914043,24.8548329 C38.0914043,27.21704 36.7019212,29.4685187 34.2317291,31.1294456 L34.2317291,31.1294456 Z" id="Shape"></path>
                </g>
            </g>
        </g>
    </g>
</svg>