<?xml version="1.0" encoding="UTF-8" standalone="no"?>
<svg width="50px" height="50px" viewBox="0 0 50 50" version="1.1" xmlns="http://www.w3.org/2000/svg" xmlns:xlink="http://www.w3.org/1999/xlink">
    <!-- Generator: sketchtool 3.8.3 (29802) - http://www.bohemiancoding.com/sketch -->
    <title>97CC7444-70E6-465B-AE41-FC853F1E4BD8</title>
    <desc>Created with sketchtool.</desc>
    <defs></defs>
    <g id="1000_Cover" stroke="none" stroke-width="1" fill="none" fill-rule="evenodd">
        <g id="1000_Cover/Itinerary" transform="translate(-316.000000, -119.000000)" fill="#FFFFFF">
            <g id="Icons" transform="translate(315.000000, 55.000000)">
                <g id="icn_restaurant" transform="translate(1.000000, 64.000000)">
                    <path d="M23.2547075,20.4662266 C23.2493556,21.4038048 22.3695741,22.4124336 21.2293368,22.4124336 L21.2293368,38.3028327 C21.2290395,40.5657224 18.0756218,40.5657224 18.0708646,38.3028327 L18.0708646,22.4124336 C16.9642249,22.4124336 15.9979221,21.5772263 16.0000034,20.3336954 L16.0000034,11.5773588 C15.9979221,10.8172622 17.1259691,10.7879719 17.1334022,11.6069391 L17.1334022,18.0777657 L18.0708646,18.0777657 L18.0708646,11.5474885 C18.0708646,10.8494524 19.1566916,10.804212 19.1593675,11.5773588 L19.1593675,18.0777657 L20.1259677,18.0777657 L20.1259677,11.5622787 C20.1331034,10.8259622 21.1883061,10.796672 21.1838462,11.5918589 L21.1838462,18.0777657 L22.1516357,18.0777657 L22.1516357,11.5622787 C22.1480678,10.8335023 23.2502476,10.803922 23.2550048,11.5918589 L23.2550048,20.4662266 L23.2547075,20.4662266 Z M31.657082,13.6114366 L31.657082,38.3028327 C31.6612445,40.508592 28.5018804,40.4758217 28.4989071,38.3028327 L28.4989071,28.4998769 L26.8211081,28.4998769 L26.8211081,13.6114366 C26.8193242,10.1450363 31.6612445,10.1450363 31.657082,13.6114366 Z" id="Combined-Shape"></path>
                </g>
            </g>
        </g>
    </g>
</svg>